<?xml version="1.0" encoding="UTF-8"?>
<svg width="125px" height="113px" viewBox="0 0 125 113" version="1.1" xmlns="http://www.w3.org/2000/svg" xmlns:xlink="http://www.w3.org/1999/xlink">
    <!-- Generator: Sketch 63.1 (92452) - https://sketch.com -->
    <title>Workers_hexagon_logo_125x113</title>
    <desc>Created with Sketch.</desc>
    <defs>
        <linearGradient x1="50%" y1="100%" x2="25.7082702%" y2="8.7%" id="linearGradient-1">
            <stop stop-color="#EB6F07" offset="0%"></stop>
            <stop stop-color="#FAB743" offset="100%"></stop>
        </linearGradient>
        <linearGradient x1="80.9894495%" y1="83.7%" x2="40.5032332%" y2="29.5%" id="linearGradient-2">
            <stop stop-color="#D96504" offset="0%"></stop>
            <stop stop-color="#D96504" stop-opacity="0" offset="100%"></stop>
        </linearGradient>
        <linearGradient x1="42.0027227%" y1="8.7%" x2="83.9884285%" y2="79.9%" id="linearGradient-3">
            <stop stop-color="#EB6F07" offset="0%"></stop>
            <stop stop-color="#EB720A" stop-opacity="0" offset="100%"></stop>
        </linearGradient>
        <linearGradient x1="50%" y1="100%" x2="25.7082702%" y2="8.7%" id="linearGradient-4">
            <stop stop-color="#EE6F05" offset="0%"></stop>
            <stop stop-color="#FAB743" offset="100%"></stop>
        </linearGradient>
        <linearGradient x1="-33.1716838%" y1="100%" x2="91.6858079%" y2="0%" id="linearGradient-5">
            <stop stop-color="#D96504" stop-opacity="0.8" offset="0%"></stop>
            <stop stop-color="#D96504" stop-opacity="0.2" offset="49.8%"></stop>
            <stop stop-color="#D96504" stop-opacity="0" offset="100%"></stop>
        </linearGradient>
        <linearGradient x1="50%" y1="100%" x2="25.7082702%" y2="8.7%" id="linearGradient-6">
            <stop stop-color="#FFA95F" offset="0%"></stop>
            <stop stop-color="#FFEBC8" offset="100%"></stop>
        </linearGradient>
        <linearGradient x1="8.11426019%" y1="1.1%" x2="96.4841743%" y2="48.8%" id="linearGradient-7">
            <stop stop-color="#FFFFFF" stop-opacity="0.5" offset="0%"></stop>
            <stop stop-color="#FFFFFF" stop-opacity="0.1" offset="100%"></stop>
        </linearGradient>
        <linearGradient x1="-13.6783204%" y1="104.2%" x2="99.9829831%" y2="46.2%" id="linearGradient-8">
            <stop stop-color="#FFFFFF" stop-opacity="0.5" offset="0%"></stop>
            <stop stop-color="#FFFFFF" stop-opacity="0.1" offset="100%"></stop>
        </linearGradient>
    </defs>
    <g id="Page-1" stroke="none" stroke-width="1" fill="none" fill-rule="evenodd">
        <g id="Workers_hexagon_logo_125x113" fill-rule="nonzero">
            <path d="M32.1514423,1.62287234 L46.875,28.1898936 L33.3533654,52.5329787 C32.037315,54.8965642 32.037315,57.7728507 33.3533654,60.1364362 L46.875,84.5396277 L32.1514423,111.106649 C29.3809869,109.732903 27.0803706,107.567863 25.5408654,104.885638 L2.10336538,64.1635638 C-0.675435168,59.3250502 -0.675435168,53.3744179 2.10336538,48.5359043 L25.5408654,7.81382979 C27.0850235,5.1427355 29.3851807,2.98858537 32.1514423,1.62287234 Z" id="Path" fill="url(#linearGradient-1)"></path>
            <path d="M33.3533654,52.5630319 C32.0484419,54.9188105 32.0484419,57.7806576 33.3533654,60.1364362 L46.875,84.5396277 L32.1514423,111.106649 C29.3809869,109.732903 27.0803706,107.567863 25.5408654,104.885638 L2.10336538,64.1635638 C0.240384615,60.9478723 10.6670673,57.1010638 33.3533654,52.5930851 L33.3533654,52.5630319 Z" id="Path" fill="url(#linearGradient-2)" opacity="0.7"></path>
            <path d="M33.6538462,4.29760638 L46.875,28.1898936 L44.6814904,32.0066489 L33.0228365,12.2617021 C29.6574519,6.76196809 24.5192308,9.61702128 18.0889423,20.7367021 L19.0504808,19.0837766 L25.5408654,7.81382979 C27.0689979,5.15147854 29.3472801,2.99823988 32.0913462,1.62287234 L33.6237981,4.29760638 L33.6538462,4.29760638 Z" id="Path" fill="url(#linearGradient-3)" opacity="0.5"></path>
            <path d="M99.4591346,7.81382979 L122.896635,48.5359043 C125.691106,53.3444149 125.691106,59.3550532 122.896635,64.1635638 L99.4591346,104.885638 C96.6697865,109.717756 91.5161975,112.695892 85.9375,112.699468 L62.5,112.699468 L91.6466346,60.1364362 C92.9515581,57.7806576 92.9515581,54.9188105 91.6466346,52.5630319 L62.5,0 L85.9375,0 C91.5161975,0.00357603544 96.6697865,2.98171207 99.4591346,7.81382979 L99.4591346,7.81382979 Z" id="Path" fill="url(#linearGradient-4)"></path>
            <path d="M84.7355769,112.519149 L61.5985577,112.729521 L89.6033654,59.8960106 C90.8747333,57.5103717 90.8747333,54.6481389 89.6033654,52.2625 L61.5985577,0 L66.8870192,0 L96.2740385,52.0220745 C97.6909681,54.5226668 97.6795383,57.5863828 96.2439904,60.0763298 C89.9193252,71.0703373 83.6392256,82.0899314 77.4038462,93.1348404 C71.6947115,103.172606 74.1586538,109.634043 84.7355769,112.519149 L84.7355769,112.519149 Z" id="Path" fill="url(#linearGradient-5)"></path>
            <path d="M39.0625,112.699468 C36.6586538,112.699468 34.2548077,112.128457 32.1514423,111.106649 L61.0576923,58.9643617 C61.9591346,57.3414894 61.9591346,55.3579787 61.0576923,53.7351064 L32.1514423,1.62287234 C34.3001208,0.558735874 36.6648327,0.00344815878 39.0625,0 L62.5,0 L91.6466346,52.5630319 C92.9515581,54.9188105 92.9515581,57.7806576 91.6466346,60.1364362 L62.5,112.699468 L39.0625,112.699468 Z" id="Path" fill="url(#linearGradient-6)"></path>
            <path d="M89.6033654,53.7351064 L59.7956731,0 L62.5,0 L91.6466346,52.5630319 C92.9515581,54.9188105 92.9515581,57.7806576 91.6466346,60.1364362 L62.5,112.699468 L59.7956731,112.699468 L89.6033654,58.9643617 C90.5048077,57.3414894 90.5048077,55.3579787 89.6033654,53.7351064 Z" id="Path" fill="url(#linearGradient-7)" opacity="0.6"></path>
            <path d="M61.0576923,53.7351064 L32.1514423,1.62287234 C33.0528846,1.14202128 34.1346154,0.781382979 35.15625,0.480851064 C41.5264423,11.931117 50.9314904,29.3018617 63.4014423,52.5630319 C64.7063658,54.9188105 64.7063658,57.7806576 63.4014423,60.1364362 L34.7055288,112.098404 C33.6838942,111.797872 33.1430288,111.5875 32.1814904,111.136702 L61.0276442,58.9944149 C61.9290865,57.3715426 61.9290865,55.3880319 61.0276442,53.7651596 L61.0576923,53.7351064 Z" id="Path" fill="url(#linearGradient-8)" opacity="0.6"></path>
        </g>
    </g>
</svg>